<?xml version="1.0" encoding="UTF-8" standalone="no"?>
<svg
   width="41.6667in"
   height="41.6667in"
   viewBox="0 0 3000 3000"
   version="1.1"
   id="svg1"
   sodipodi:docname="XIVDeck_Logo_Inskscape.svg"
   xml:space="preserve"
   inkscape:version="1.3.2 (091e20ef0f, 2023-11-25)"
   xmlns:inkscape="http://www.inkscape.org/namespaces/inkscape"
   xmlns:sodipodi="http://sodipodi.sourceforge.net/DTD/sodipodi-0.dtd"
   xmlns:xlink="http://www.w3.org/1999/xlink"
   xmlns="http://www.w3.org/2000/svg"
   xmlns:svg="http://www.w3.org/2000/svg"><defs
     id="defs1"><linearGradient
       id="linearGradient24"
       inkscape:collect="always"><stop
         style="stop-color:#00007b;stop-opacity:1;"
         offset="0"
         id="stop24" /><stop
         style="stop-color:#000000;stop-opacity:1"
         offset="1"
         id="stop25" /></linearGradient><linearGradient
       inkscape:collect="always"
       xlink:href="#linearGradient24"
       id="linearGradient25"
       x1="930.46808"
       y1="1162.4991"
       x2="1253.9053"
       y2="1577.3427"
       gradientUnits="userSpaceOnUse" /></defs><sodipodi:namedview
     id="namedview1"
     pagecolor="#ffffff"
     bordercolor="#000000"
     borderopacity="0.25"
     inkscape:showpageshadow="2"
     inkscape:pageopacity="0.0"
     inkscape:pagecheckerboard="0"
     inkscape:deskcolor="#d1d1d1"
     inkscape:document-units="in"
     inkscape:export-bgcolor="#ffffff00"
     inkscape:zoom="0.12153398"
     inkscape:cx="-781.6744"
     inkscape:cy="2567.1833"
     inkscape:window-width="2844"
     inkscape:window-height="1510"
     inkscape:window-x="0"
     inkscape:window-y="0"
     inkscape:window-maximized="1"
     inkscape:current-layer="layer3" /><g
     inkscape:groupmode="layer"
     id="layer3"
     inkscape:label="Layer 3"><g
       id="g24"
       inkscape:export-filename="XIVDeck_IconLarge_OrangeAndRed.png"
       inkscape:export-xdpi="96"
       inkscape:export-ydpi="96"
       style="fill:#aa0000;fill-opacity:1"><ellipse
         style="fill:url(#linearGradient25);fill-opacity:1;stroke:#9a8d3f;stroke-width:8.20799;stroke-dasharray:none;stroke-opacity:1"
         id="Circle"
         cx="1433.202"
         cy="1694.53"
         rx="809.76501"
         ry="822.65564" /><path
         id="Meteor_Outline"
         fill="none"
         stroke="black"
         stroke-width="1"
         d="M 2358.00,1621.00            C 2354.22,1619.50 2350.14,1617.77 2346.00,1617.74              2327.90,1617.58 2326.98,1643.32 2327.00,1656.00              2327.02,1670.03 2332.28,1695.40 2340.10,1707.00              2346.57,1716.58 2349.65,1711.69 2354.90,1715.61              2361.33,1720.41 2361.08,1728.85 2361.00,1736.00              2361.00,1736.00 2359.18,1763.00 2359.18,1763.00              2359.93,1773.49 2361.21,1784.01 2364.69,1794.00              2373.59,1819.49 2393.88,1841.01 2415.00,1857.12              2420.89,1861.61 2438.74,1874.70 2445.00,1876.67              2450.44,1878.39 2453.85,1877.68 2459.00,1878.17              2459.00,1878.17 2507.00,1879.00 2507.00,1879.00              2515.31,1878.90 2527.73,1876.71 2536.00,1875.00              2599.99,1861.73 2628.51,1804.78 2646.66,1748.00              2653.38,1726.97 2658.80,1704.64 2663.20,1683.00              2664.43,1676.92 2664.76,1662.70 2673.96,1664.66              2679.35,1665.81 2679.62,1671.60 2680.15,1676.00              2680.15,1676.00 2684.75,1708.00 2684.75,1708.00              2689.38,1736.26 2694.58,1767.20 2704.68,1794.00              2706.73,1799.42 2711.15,1808.30 2714.44,1813.00              2717.86,1817.88 2722.35,1822.35 2724.44,1828.00              2726.65,1833.97 2726.07,1845.33 2726.00,1852.00              2726.00,1852.00 2724.42,1870.00 2724.42,1870.00              2724.13,1872.22 2724.06,1875.96 2722.98,1877.79              2720.95,1881.21 2707.20,1887.15 2703.00,1889.25              2703.00,1889.25 2655.00,1915.60 2655.00,1915.60              2635.15,1927.51 2617.25,1939.57 2600.00,1955.17              2600.00,1955.17 2558.00,1994.60 2558.00,1994.60              2546.44,2003.85 2534.49,2012.35 2522.00,2020.31              2508.03,2029.20 2502.09,2030.89 2489.00,2043.09              2474.90,2056.23 2460.07,2071.64 2453.23,2090.00              2448.17,2103.58 2449.37,2114.84 2445.96,2126.00              2442.42,2137.61 2435.63,2145.71 2427.00,2153.96              2412.04,2168.27 2386.76,2184.28 2366.00,2187.56              2366.00,2187.56 2350.00,2188.99 2350.00,2188.99              2350.00,2188.99 2339.00,2188.04 2339.00,2188.04              2329.17,2187.73 2317.44,2190.42 2309.00,2195.45              2295.12,2203.73 2281.85,2219.14 2272.13,2232.00              2268.33,2237.03 2261.88,2245.47 2259.44,2251.00              2253.91,2263.51 2249.95,2285.18 2247.20,2299.00              2247.20,2299.00 2241.21,2339.00 2241.21,2339.00              2241.21,2339.00 2246.20,2362.00 2246.20,2362.00              2249.89,2380.19 2256.79,2413.26 2257.00,2431.00              2257.00,2431.00 2257.00,2444.00 2257.00,2444.00              2256.93,2454.07 2251.78,2455.58 2243.00,2458.66              2243.00,2458.66 2207.00,2468.87 2207.00,2468.87              2149.03,2483.37 2104.10,2496.42 2054.00,2531.02              1996.99,2570.40 1960.96,2632.15 1943.15,2698.00              1943.15,2698.00 1933.92,2741.00 1933.92,2741.00              1933.16,2745.60 1931.73,2758.74 1929.42,2761.89              1925.54,2767.18 1918.86,2767.06 1913.00,2767.00              1903.53,2766.89 1889.90,2761.93 1881.00,2758.40              1881.00,2758.40 1827.00,2737.01 1827.00,2737.01              1823.94,2736.19 1818.06,2734.94 1815.00,2735.38              1810.49,2736.02 1802.71,2741.49 1794.01,2734.61              1787.56,2729.50 1781.81,2717.43 1777.77,2710.00              1770.69,2696.97 1764.38,2686.41 1754.73,2675.00              1728.22,2643.66 1695.61,2624.84 1658.00,2609.80              1649.43,2606.37 1623.17,2597.00 1615.00,2595.53              1611.18,2594.84 1606.83,2595.94 1603.00,2596.59              1603.00,2596.59 1578.00,2602.00 1578.00,2602.00              1542.45,2612.20 1510.10,2627.41 1490.87,2661.00              1473.58,2691.21 1469.93,2728.23 1432.00,2739.98              1424.88,2742.18 1422.31,2742.08 1415.00,2742.00              1415.00,2742.00 1405.00,2741.09 1405.00,2741.09              1360.15,2737.95 1331.92,2718.57 1295.00,2695.58              1295.00,2695.58 1254.00,2672.76 1254.00,2672.76              1244.98,2668.32 1235.21,2663.78 1225.00,2664.01              1202.65,2664.52 1176.12,2679.85 1157.00,2690.72              1126.27,2708.18 1111.27,2715.98 1078.00,2728.42              1078.00,2728.42 1049.00,2737.71 1049.00,2737.71              1041.68,2739.81 1033.66,2742.24 1026.00,2740.47              1017.91,2738.60 1014.13,2732.53 1011.91,2725.00              1008.47,2713.34 1008.73,2700.99 1007.91,2689.00              1006.51,2668.48 1004.54,2646.20 994.13,2628.00              987.49,2616.40 965.57,2595.54 955.00,2586.29              876.91,2517.93 772.32,2491.60 672.00,2477.42              672.00,2477.42 604.00,2470.17 604.00,2470.17              604.00,2470.17 570.00,2467.28 570.00,2467.28              562.27,2466.37 544.30,2465.81 538.09,2462.07              536.14,2460.90 534.55,2459.01 532.84,2457.51              530.49,2455.45 528.79,2454.54 526.80,2451.91              520.47,2443.57 519.70,2426.26 529.04,2419.70              533.13,2416.83 540.11,2416.40 545.00,2415.34              553.48,2413.50 561.38,2410.87 569.00,2406.69              599.22,2390.09 613.61,2354.25 614.00,2321.00              614.80,2251.92 580.17,2170.21 520.00,2133.06              504.89,2123.73 485.87,2117.03 468.00,2117.07              463.08,2116.99 446.95,2118.32 444.00,2117.07              438.02,2114.76 425.96,2101.96 421.00,2097.00              404.67,2080.67 386.99,2060.32 372.88,2042.00              352.36,2015.35 336.80,1993.73 320.69,1964.00              311.34,1946.74 302.97,1927.92 303.00,1908.00              303.01,1903.54 303.46,1893.71 307.64,1891.02              309.25,1890.00 316.52,1890.96 319.00,1891.02              319.00,1891.02 332.00,1892.00 332.00,1892.00              332.00,1892.00 351.00,1892.00 351.00,1892.00              351.00,1892.00 361.00,1891.09 361.00,1891.09              404.46,1888.10 446.21,1875.45 477.83,1843.83              495.66,1826.00 508.87,1803.69 517.31,1780.00              523.77,1761.86 529.97,1731.17 530.00,1712.00              530.00,1712.00 530.00,1681.00 530.00,1681.00              530.00,1681.00 529.09,1669.00 529.09,1669.00              527.03,1640.87 520.92,1611.76 512.00,1585.00              512.00,1585.00 500.85,1555.00 500.85,1555.00              499.29,1551.36 495.46,1544.66 496.17,1541.00              496.17,1541.00 502.69,1527.00 502.69,1527.00              505.78,1520.13 509.34,1507.50 508.91,1500.00              506.93,1465.98 466.43,1450.74 441.00,1436.28              424.71,1427.02 410.25,1417.76 410.00,1397.00              409.89,1387.33 411.93,1374.72 418.53,1367.18              421.50,1363.78 426.23,1361.40 430.00,1358.92              430.00,1358.92 449.00,1345.63 449.00,1345.63              469.23,1330.52 490.25,1313.32 505.37,1293.00              517.02,1277.34 527.00,1257.47 518.77,1238.00              507.34,1210.98 469.83,1198.60 443.00,1194.87              443.00,1194.87 422.00,1193.04 422.00,1193.04              408.23,1193.62 400.79,1197.25 396.00,1197.78              383.26,1199.19 381.01,1184.39 381.00,1175.00              380.97,1157.02 382.56,1146.33 387.72,1129.00              389.30,1123.69 396.07,1107.06 395.52,1103.00              394.92,1098.59 387.05,1086.42 384.40,1082.00              376.61,1069.01 365.98,1050.32 365.09,1035.00              364.53,1025.36 370.33,1012.26 382.00,1016.10              388.18,1018.14 398.35,1024.65 404.00,1028.34              404.00,1028.34 438.00,1050.95 438.00,1050.95              468.00,1069.95 509.76,1090.94 546.00,1091.00              546.00,1091.00 557.00,1091.00 557.00,1091.00              566.46,1090.89 578.99,1088.27 588.00,1085.33              627.31,1072.51 655.22,1043.15 678.28,1010.00              678.28,1010.00 699.74,974.00 699.74,974.00              701.66,970.29 705.51,960.77 709.10,959.11              714.51,956.63 725.87,966.94 730.00,970.12              745.60,982.13 758.46,992.24 779.00,992.00              786.76,991.91 793.50,989.49 800.00,985.30              803.76,982.88 809.68,978.14 812.71,974.91              815.32,972.14 818.39,968.34 820.20,965.00              832.49,942.33 799.32,928.73 790.80,917.83              787.53,913.65 786.96,909.12 786.75,904.00              786.75,904.00 791.00,860.00 791.00,860.00              791.03,841.36 790.48,827.70 780.55,811.00              771.87,796.40 759.54,784.03 746.00,773.89              746.00,773.89 722.33,757.79 722.33,757.79              719.31,754.66 716.17,748.08 714.43,744.00              707.84,728.60 702.80,711.86 703.00,695.00              703.05,690.91 703.34,686.50 706.42,683.42              711.29,678.53 725.31,677.93 732.00,678.00              732.00,678.00 777.00,682.00 777.00,682.00              781.84,682.05 787.40,682.31 792.00,680.75              805.51,676.17 822.84,656.72 830.67,645.00              841.33,629.04 849.48,612.00 858.26,595.00              871.08,570.16 884.69,544.94 900.72,522.00              916.42,499.54 932.63,477.33 951.07,457.00              956.87,450.62 965.36,438.14 975.00,439.37              987.84,441.00 1003.99,463.96 1005.79,476.00              1005.79,476.00 1005.00,501.00 1005.00,501.00              1005.25,522.22 1012.40,545.15 1030.00,558.24              1038.03,564.21 1046.41,567.24 1056.00,569.63              1065.57,572.00 1087.96,573.98 1098.00,574.00              1103.30,574.01 1112.45,574.55 1117.00,577.23              1123.83,581.26 1127.69,590.50 1129.19,598.00              1129.94,601.74 1130.40,609.18 1130.26,613.00              1129.96,621.16 1129.05,632.32 1123.37,638.73              1120.78,641.64 1106.46,647.89 1102.00,650.31              1086.56,658.68 1071.77,668.95 1059.95,682.01              1052.53,690.21 1046.30,700.53 1047.09,712.00              1048.19,728.01 1061.77,739.84 1074.00,748.41              1095.35,763.37 1123.35,772.66 1148.00,780.67              1158.01,783.92 1180.20,790.88 1190.00,791.00              1228.37,791.45 1256.46,758.32 1276.00,729.00              1297.63,696.54 1317.18,651.89 1330.31,615.00              1330.31,615.00 1345.28,569.00 1345.28,569.00              1345.28,569.00 1352.96,544.00 1352.96,544.00              1355.54,539.42 1362.20,531.77 1366.00,528.01              1381.29,512.93 1402.48,504.03 1424.00,504.00              1424.00,504.00 1439.00,504.00 1439.00,504.00              1463.86,504.29 1503.25,518.36 1528.00,525.42              1541.36,529.23 1553.92,533.16 1568.00,533.00              1577.31,532.89 1602.99,525.35 1613.00,522.42              1644.47,513.22 1680.48,497.90 1705.00,475.83              1725.36,457.50 1737.05,439.31 1750.58,416.00              1769.19,383.93 1781.95,360.74 1809.00,334.00              1816.13,326.96 1830.46,312.29 1841.00,313.34              1852.63,314.49 1870.60,328.82 1881.00,335.19              1898.46,345.89 1913.71,350.38 1934.00,351.82              1937.34,352.05 1938.88,351.48 1942.00,351.17              1954.62,349.91 1962.96,348.45 1975.00,344.05              2003.23,333.73 2027.45,317.79 2051.00,299.34              2051.00,299.34 2080.00,274.58 2080.00,274.58              2086.87,268.62 2090.00,263.48 2100.00,264.09              2109.06,264.65 2124.18,271.25 2133.00,274.58              2146.46,279.65 2166.64,284.92 2181.00,284.92              2181.00,284.92 2189.00,284.09 2189.00,284.09              2241.79,280.23 2286.11,238.43 2318.58,200.00              2318.58,200.00 2338.58,175.00 2338.58,175.00              2342.61,169.44 2350.22,158.38 2355.01,154.21              2356.58,152.85 2358.14,151.76 2360.00,150.84              2373.13,144.29 2375.99,159.66 2376.00,169.00              2376.00,169.00 2376.00,178.00 2376.00,178.00              2376.00,178.00 2375.00,193.00 2375.00,193.00              2375.00,193.00 2375.00,197.00 2375.00,197.00              2375.00,197.00 2374.09,207.00 2374.09,207.00              2374.09,207.00 2371.16,242.00 2371.16,242.00              2367.58,275.49 2360.37,314.89 2342.80,344.00              2329.05,366.77 2311.72,382.60 2294.17,402.00              2277.70,420.21 2265.97,435.37 2252.69,456.00              2241.03,474.11 2230.98,493.54 2221.78,513.00              2217.49,522.08 2213.13,536.36 2204.99,542.20              2195.43,549.06 2179.35,549.13 2168.00,549.00              2168.00,549.00 2154.00,548.00 2154.00,548.00              2154.00,548.00 2125.00,548.00 2125.00,548.00              2102.19,548.27 2083.95,558.59 2072.00,578.00              2039.43,563.97 2004.80,549.73 1969.00,561.52              1957.27,565.38 1950.05,570.10 1940.00,577.02              1933.07,581.80 1926.80,587.73 1918.00,587.98              1903.16,588.41 1889.37,582.13 1876.00,576.42              1860.68,569.88 1848.38,564.66 1832.00,560.89              1779.05,548.70 1734.35,580.11 1698.00,615.04              1691.93,620.88 1681.21,632.70 1677.32,640.00              1671.64,650.66 1668.44,665.07 1666.73,677.00              1662.11,709.27 1665.72,745.35 1676.95,776.00              1682.87,792.15 1694.79,815.26 1710.00,824.05              1717.17,828.19 1726.80,829.99 1735.00,830.00              1735.00,830.00 1744.00,830.00 1744.00,830.00              1744.00,830.00 1774.00,828.00 1774.00,828.00              1790.17,828.19 1806.67,835.19 1820.00,844.00              1827.49,848.95 1839.11,859.99 1848.00,859.74              1857.86,859.46 1873.80,846.92 1882.00,841.34              1899.60,829.37 1909.44,824.00 1931.00,824.00              1929.46,818.58 1930.32,817.15 1929.72,812.00              1928.22,799.33 1929.01,777.90 1933.44,766.00              1936.64,757.40 1941.93,749.70 1952.00,749.46              1959.20,749.29 1970.11,756.96 1976.00,761.02              1980.57,764.18 1987.81,769.67 1991.06,774.04              1997.18,782.26 1994.62,789.96 1992.37,799.00              1989.66,809.92 1988.91,814.88 1987.66,826.00              1987.44,830.06 1986.53,832.72 1987.66,836.98              1988.66,842.26 1991.34,842.40 1994.67,846.10              1997.58,849.33 1999.85,854.03 2001.58,858.00              2013.13,884.55 2020.38,912.35 2046.00,929.64              2051.90,933.62 2064.82,940.22 2072.00,939.45              2079.94,938.60 2100.15,928.87 2107.00,924.25              2114.21,919.39 2123.47,910.61 2127.69,903.00              2139.62,881.46 2132.92,866.39 2143.00,845.00              2166.22,854.29 2174.74,857.32 2200.00,859.09              2204.39,859.40 2205.95,860.16 2211.00,859.96              2211.00,859.96 2222.00,859.00 2222.00,859.00              2222.00,859.00 2273.00,854.00 2273.00,854.00              2278.84,853.94 2285.79,853.96 2290.91,857.22              2294.81,859.71 2298.94,867.01 2301.88,871.00              2307.11,878.09 2313.87,885.87 2321.00,891.07              2344.51,908.23 2366.12,895.61 2391.00,889.89              2391.00,889.89 2407.00,887.28 2407.00,887.28              2409.62,886.95 2412.55,887.13 2414.72,885.40              2418.03,882.77 2418.65,875.98 2419.00,872.00              2419.00,872.00 2423.01,842.00 2423.01,842.00              2424.73,834.14 2428.60,823.93 2434.10,818.02              2441.19,810.40 2445.41,811.50 2448.07,807.73              2450.09,804.86 2450.06,799.42 2449.99,796.00              2449.82,788.52 2446.83,777.80 2445.66,770.00              2443.39,758.72 2443.10,745.15 2445.66,734.00              2446.90,729.99 2450.21,718.23 2453.41,716.01              2456.96,713.55 2469.41,713.95 2474.00,714.00              2474.00,714.00 2484.00,714.91 2484.00,714.91              2494.01,715.60 2503.15,715.66 2513.00,718.43              2516.57,719.43 2520.75,720.78 2524.00,722.52              2526.10,723.64 2528.42,725.67 2530.96,724.84              2533.16,724.12 2536.40,719.81 2538.09,718.00              2538.09,718.00 2554.00,702.04 2554.00,702.04              2569.87,686.86 2589.59,670.99 2607.00,657.42              2607.00,657.42 2625.00,643.35 2625.00,643.35              2627.32,641.60 2630.66,638.50 2633.77,640.08              2636.80,641.61 2636.99,646.06 2637.42,649.00              2637.42,649.00 2638.00,677.00 2638.00,677.00              2637.89,686.01 2635.72,699.75 2632.13,708.00              2632.13,708.00 2620.45,730.00 2620.45,730.00              2616.51,739.74 2614.13,755.47 2614.00,766.00              2614.00,766.00 2614.00,774.00 2614.00,774.00              2613.99,777.18 2614.41,781.00 2611.69,783.26              2609.05,785.45 2601.50,785.82 2598.00,786.28              2588.58,787.52 2581.18,788.81 2572.00,791.43              2541.38,800.16 2515.72,820.33 2494.04,843.00              2490.23,846.98 2480.15,858.16 2478.65,863.00              2474.42,876.65 2491.00,890.05 2502.00,894.55              2511.08,898.26 2515.83,898.35 2525.00,900.00              2525.00,900.00 2525.96,912.00 2525.96,912.00              2526.20,918.11 2524.53,929.38 2522.12,935.00              2515.68,950.00 2502.64,954.20 2488.00,957.87              2467.41,963.04 2446.09,965.82 2427.00,975.89              2395.26,992.62 2373.23,1022.34 2362.00,1056.00              2358.36,1066.92 2355.02,1080.47 2355.00,1092.00              2355.00,1092.00 2355.00,1101.00 2355.00,1101.00              2355.09,1108.36 2357.36,1118.98 2359.67,1126.00              2371.26,1161.20 2398.62,1185.01 2422.28,1212.00              2432.98,1224.19 2451.02,1244.34 2452.60,1261.00              2453.15,1263.97 2453.17,1270.20 2452.60,1273.00              2450.34,1280.00 2444.34,1284.13 2438.00,1286.96              2438.00,1286.96 2403.00,1298.78 2403.00,1298.78              2395.23,1302.43 2386.62,1307.68 2385.21,1317.00              2384.70,1320.41 2385.44,1323.64 2385.85,1327.00              2387.38,1339.80 2391.84,1355.14 2405.00,1360.52              2410.74,1362.87 2424.28,1361.99 2431.00,1362.00              2435.42,1362.01 2439.38,1361.67 2442.69,1365.23              2445.52,1368.27 2445.91,1373.99 2446.59,1378.00              2448.79,1391.11 2449.15,1395.74 2449.00,1409.00              2448.75,1429.72 2433.39,1435.82 2423.32,1457.00              2414.71,1475.12 2410.30,1493.45 2406.40,1513.00              2406.40,1513.00 2401.00,1548.00 2401.00,1548.00              2394.42,1548.00 2389.39,1547.89 2383.00,1550.10              2361.06,1557.69 2353.97,1576.67 2354.00,1598.00              2354.01,1606.63 2355.62,1612.79 2358.00,1621.00 Z            M 1397.00,928.14            C 1391.22,929.11 1390.67,928.97 1385.00,929.00              1385.00,929.00 1350.00,932.28 1350.00,932.28              1309.56,937.60 1269.93,946.93 1231.00,959.02              1181.76,974.33 1131.33,996.18 1086.00,1020.69              927.29,1106.53 798.10,1237.70 729.60,1406.00              706.21,1463.48 689.44,1529.28 682.84,1591.00              682.84,1591.00 679.91,1623.00 679.91,1623.00              679.91,1623.00 679.00,1633.00 679.00,1633.00              679.00,1633.00 678.00,1652.00 678.00,1652.00              678.00,1652.00 678.00,1693.00 678.00,1693.00              678.00,1693.00 677.00,1708.00 677.00,1708.00              677.00,1708.00 677.00,1731.00 677.00,1731.00              677.00,1731.00 677.96,1741.00 677.96,1741.00              677.96,1741.00 677.96,1757.00 677.96,1757.00              677.96,1757.00 678.96,1768.00 678.96,1768.00              680.10,1794.12 683.45,1820.19 687.75,1846.00              704.46,1946.23 743.08,2042.63 799.67,2127.00              887.59,2258.08 1015.04,2357.60 1160.00,2418.42              1211.22,2439.92 1264.43,2455.40 1319.00,2465.61              1344.16,2470.32 1369.50,2473.34 1395.00,2475.09              1395.00,2475.09 1405.00,2476.00 1405.00,2476.00              1405.00,2476.00 1438.00,2477.00 1438.00,2477.00              1438.00,2477.00 1448.00,2476.04 1448.00,2476.04              1448.00,2476.04 1462.00,2476.04 1462.00,2476.04              1462.00,2476.04 1473.00,2475.00 1473.00,2475.00              1473.00,2475.00 1482.00,2475.00 1482.00,2475.00              1482.00,2475.00 1510.00,2472.17 1510.00,2472.17              1556.37,2467.53 1603.17,2458.35 1648.00,2445.57              1887.56,2377.28 2096.30,2206.10 2182.95,1969.00              2201.15,1919.19 2213.53,1864.71 2219.16,1812.00              2219.16,1812.00 2222.00,1784.00 2222.00,1784.00              2222.00,1784.00 2222.00,1775.00 2222.00,1775.00              2222.00,1775.00 2223.00,1763.00 2223.00,1763.00              2223.00,1763.00 2223.00,1705.00 2223.00,1705.00              2223.00,1705.00 2221.09,1679.00 2221.09,1679.00              2218.80,1645.50 2214.98,1612.17 2209.41,1579.00              2192.17,1476.21 2158.69,1373.96 2103.58,1285.00              2079.11,1245.51 2054.01,1212.46 2022.83,1178.00              2022.83,1178.00 2010.04,1165.00 2010.04,1165.00              2010.04,1165.00 2002.91,1157.09 2002.91,1157.09              2002.91,1157.09 1995.00,1149.96 1995.00,1149.96              1909.02,1067.72 1808.13,1009.81 1695.00,973.66              1662.32,963.21 1629.65,954.03 1596.00,947.20              1564.00,940.70 1531.52,935.32 1499.00,932.17              1499.00,932.17 1481.00,930.83 1481.00,930.83              1481.00,930.83 1467.00,929.91 1467.00,929.91              1467.00,929.91 1457.00,929.00 1457.00,929.00              1457.00,929.00 1444.00,929.00 1444.00,929.00              1444.00,929.00 1428.00,928.14 1428.00,928.14              1428.00,928.14 1397.00,928.14 1397.00,928.14 Z            M 2711.00,1383.61            C 2722.51,1381.43 2734.35,1386.83 2733.94,1400.00              2733.77,1405.50 2730.54,1410.13 2728.31,1415.00              2725.40,1421.34 2722.78,1429.27 2720.86,1436.00              2714.16,1459.56 2711.31,1483.80 2708.00,1508.00              2706.78,1516.92 2705.04,1529.62 2702.25,1538.00              2700.91,1542.03 2698.50,1547.16 2693.96,1548.26              2687.81,1549.75 2681.27,1543.27 2677.81,1539.00              2669.03,1528.15 2661.60,1511.31 2657.34,1498.00              2655.19,1491.24 2653.08,1483.09 2653.00,1476.00              2652.83,1460.80 2659.60,1461.89 2667.11,1446.00              2675.35,1428.59 2678.09,1404.90 2694.00,1392.53              2698.87,1388.74 2705.13,1385.51 2711.00,1383.61 Z"
         style="stroke:#9a8d3f;stroke-opacity:1;stroke-width:8.20799399;stroke-dasharray:none;fill:#aa0000;fill-opacity:1" /><g
         id="Buttons"
         transform="matrix(1.0903457,0,0,1.0962263,-49.753311,-130.79168)"
         style="fill:#f9f9f9;fill-opacity:1"><rect
           style="fill:#f9f9f9;fill-opacity:1;stroke:#9a8d3f;stroke-width:7.74528;stroke-dasharray:none;stroke-opacity:1"
           id="rect2"
           width="187.26585"
           height="189.57423"
           x="840.05945"
           y="1362.9637"
           ry="40.929161" /><rect
           style="fill:#f9f9f9;fill-opacity:1;stroke:#9a8d3f;stroke-width:7.74528;stroke-dasharray:none;stroke-opacity:1"
           id="rect3"
           width="187.26585"
           height="189.57423"
           x="840.05945"
           y="1591.4792"
           ry="40.929161" /><rect
           style="fill:#f9f9f9;fill-opacity:1;stroke:#9a8d3f;stroke-width:7.74528;stroke-dasharray:none;stroke-opacity:1"
           id="rect4"
           width="187.26585"
           height="189.57423"
           x="840.05945"
           y="1823.5104"
           ry="40.929161" /><rect
           style="fill:#f9f9f9;fill-opacity:1;stroke:#9a8d3f;stroke-width:7.74528;stroke-dasharray:none;stroke-opacity:1"
           id="rect5"
           width="187.26585"
           height="189.57423"
           x="1059.2"
           y="1362.9637"
           ry="40.929161" /><rect
           style="fill:#f9f9f9;fill-opacity:1;stroke:#9a8d3f;stroke-width:7.74528;stroke-dasharray:none;stroke-opacity:1"
           id="rect6"
           width="187.26585"
           height="189.57423"
           x="1059.2"
           y="1591.4792"
           ry="40.929161" /><rect
           style="fill:#f9f9f9;fill-opacity:1;stroke:#9a8d3f;stroke-width:7.74528;stroke-dasharray:none;stroke-opacity:1"
           id="rect7"
           width="187.26585"
           height="189.57423"
           x="1059.2"
           y="1823.5104"
           ry="40.929161" /><rect
           style="fill:#f9f9f9;fill-opacity:1;stroke:#9a8d3f;stroke-width:7.74528;stroke-dasharray:none;stroke-opacity:1"
           id="rect9"
           width="187.26585"
           height="189.57423"
           x="1275.9966"
           y="1362.9637"
           ry="40.929161" /><rect
           style="fill:#f9f9f9;fill-opacity:1;stroke:#9a8d3f;stroke-width:7.74528;stroke-dasharray:none;stroke-opacity:1"
           id="rect10"
           width="187.26585"
           height="189.57423"
           x="1275.9966"
           y="1591.4792"
           ry="40.929161" /><rect
           style="fill:#f9f9f9;fill-opacity:1;stroke:#9a8d3f;stroke-width:7.74528;stroke-dasharray:none;stroke-opacity:1"
           id="rect11"
           width="187.26585"
           height="189.57423"
           x="1275.9966"
           y="1823.5104"
           ry="40.929161" /><rect
           style="fill:#f9f9f9;fill-opacity:1;stroke:#9a8d3f;stroke-width:7.74528;stroke-dasharray:none;stroke-opacity:1"
           id="rect12"
           width="187.26585"
           height="189.57423"
           x="1495.1371"
           y="1362.9637"
           ry="40.929161" /><rect
           style="fill:#f9f9f9;fill-opacity:1;stroke:#9a8d3f;stroke-width:7.74528;stroke-dasharray:none;stroke-opacity:1"
           id="rect13"
           width="187.26585"
           height="189.57423"
           x="1495.1371"
           y="1591.4792"
           ry="40.929161" /><rect
           style="fill:#f9f9f9;fill-opacity:1;stroke:#9a8d3f;stroke-width:7.74528;stroke-dasharray:none;stroke-opacity:1"
           id="rect14"
           width="187.26585"
           height="189.57423"
           x="1495.1371"
           y="1823.5104"
           ry="40.929161" /><rect
           style="fill:#f9f9f9;fill-opacity:1;stroke:#9a8d3f;stroke-width:7.74528;stroke-dasharray:none;stroke-opacity:1"
           id="rect19"
           width="187.26585"
           height="189.57423"
           x="1708.4182"
           y="1362.9637"
           ry="40.929161" /><rect
           style="fill:#f9f9f9;fill-opacity:1;stroke:#9a8d3f;stroke-width:7.74528;stroke-dasharray:none;stroke-opacity:1"
           id="rect20"
           width="187.26585"
           height="189.57423"
           x="1708.4182"
           y="1591.4792"
           ry="40.929161" /><rect
           style="fill:#f9f9f9;fill-opacity:1;stroke:#9a8d3f;stroke-width:7.74528;stroke-dasharray:none;stroke-opacity:1"
           id="rect21"
           width="187.26585"
           height="189.57423"
           x="1708.4182"
           y="1823.5104"
           ry="40.929161" /></g></g></g></svg>
